<?xml version="1.0" encoding="UTF-8"?>
<svg xmlns="http://www.w3.org/2000/svg" width="60" height="60" viewBox="0 0 60 60" fill="none">
<path d="M58.0508 56.1016C59.1273 56.1017 60 56.9752 60 58.0518V58.0537C59.9998 59.1301 59.1272 60.0028 58.0508 60.0029H1.94922C0.872773 60.0028 0.000166508 59.1301 0 58.0537V58.0518C0 56.9752 0.872671 56.1017 1.94922 56.1016H58.0508Z" fill="black"/>
<path d="M45.5645 12.0635C45.9581 11.9903 46.361 11.9806 46.7578 12.0342C46.9702 12.0821 47.1607 12.2002 47.2969 12.3701C47.433 12.5401 47.5074 12.752 47.5078 12.9697C47.5239 13.9608 47.336 14.9445 46.957 15.8604C46.578 16.7763 46.0154 17.6049 45.3037 18.2949L40.0127 23.5869L41.2822 42.6367C41.2853 42.9791 41.1604 43.3108 40.9326 43.5664L38.7637 45.7363C38.0102 46.4898 37.1141 46.2802 36.7754 45.2686L32.1045 31.332C28.0383 35.3157 24.3294 38.6094 21.8105 40.5293L22.5811 45.9648C22.5886 46.0559 22.5781 46.1476 22.5498 46.2344C22.5215 46.3212 22.4758 46.4017 22.416 46.4707L21.5889 47.3174C21.5265 47.3941 21.4449 47.453 21.3525 47.4883C21.2602 47.5235 21.1601 47.5342 21.0625 47.5186C20.9649 47.5029 20.8726 47.4618 20.7959 47.3994C20.7193 47.3371 20.6602 47.2554 20.625 47.1631L17.8848 41.6406L12.3643 38.9033C12.2718 38.8684 12.1895 38.8099 12.127 38.7334C12.0643 38.6568 12.0227 38.5644 12.0068 38.4668C11.991 38.3693 12.002 38.2691 12.0371 38.1768C12.0722 38.0845 12.1305 38.0029 12.207 37.9404L13.0537 37.1143C13.1223 37.0543 13.2026 37.0092 13.2891 36.9805C13.3755 36.9518 13.4668 36.9403 13.5576 36.9473L18.9932 37.7178C20.9109 35.1989 24.2068 31.4881 28.1904 27.4219L14.252 22.751C13.2403 22.4123 13.031 21.5193 13.7842 20.7637L15.9561 18.5938C16.2113 18.3659 16.5427 18.2415 16.8848 18.2461L35.9355 19.5166L41.2275 14.2246C42.3772 13.0209 43.9111 12.2564 45.5645 12.0635Z" fill="black"/>
<path d="M58.0508 0C59.1272 0.000140165 59.9999 0.872757 60 1.94922V1.95117C60 3.02775 59.1273 3.90123 58.0508 3.90137H1.94922C0.872671 3.90123 0 3.02775 0 1.95117V1.94922C0.000142033 0.872758 0.872758 0.000141969 1.94922 0H58.0508Z" fill="black"/>
</svg>